<svg width="72" height="72" fill="currentColor" xmlns="http://www.w3.org/2000/svg"><defs><style>.line{fill:none;stroke:#000;stroke-width:2;stroke-linecap:round;stroke-linejoin:round}</style></defs><g id="jack-o-lantern"><path class="line" d="m49.9 34.23-8.035 2.828c1.818 5.253 9.93 2.882 8.036-2.828zm-27.756 0 8.036 2.828c-1.818 5.253-9.93 2.882-8.036-2.828zm13.919 13.19-2.406-4.167h4.812zm13.455.92c-9.346 4.789-17.635 4.794-26.991 0 6.433 9.948 20.313 9.941 26.991 0zM42.86 59.386c5.418 2.486 17.623-1.59 17.949-16.678.324-15.016-11.478-19.525-17.277-17.07M11.55 38.094c-2.608 15.493 9.21 24.634 17.634 21.29 5.786 1.582 7.745 1.588 13.675 0M15.214 29.842c3.89-4.588 9.731-5.714 13.3-4.204 6.415-2.432 8.652-2.43 15.018 0"/><path class="line" d="M32.746 24.251c.382-3.84 1.176-9.61 5.45-12.049 4.262-2.43 8.92 1.434 7.586 4.986-.57 1.52-2.075 2.433-3.44 1.346 1.668-1.624 1.54-3.763-.769-3.754-2.222.01-4.243 3.49-2.618 9.383"/></g></svg>