<svg width="72" height="72" xmlns="http://www.w3.org/2000/svg">
  <def><style>.fill {fill:#000;stroke:none}.line {fill:none;stroke:#000;stroke-width:2;stroke-linecap:round;stroke-linejoin:round}</style></def>
  <path class="line" d="M53.688 30.957c5.012 3.247-.68 10.313-2.745 13.725-2.026 3.648 3.682 7.39 3.82 11.181m.88-7.893c5.032-7.996 4.318-19.057-1.687-26.344-5.444-6.972-15.11-10.197-23.652-7.915-9.028 2.187-16.189 10.35-17.148 19.594-1.137 8.733 3.309 17.837 10.872 22.337 7.83 4.885 18.475 4.388 25.799-1.26m-.783-27.064c-2.496-1.744-5.502.036-8.233-.26m-18.51-3.719c2.556-1.745 6.339-1.454 8.594.666m-2.072 20.283c4.748-.517 9.656.162 14.045 2.063"/>
  <circle class="line" cx="43.929" cy="30.81" r="9.421"/>
  <circle class="fill" cx="44.011" cy="33" r="2.989"/>
  <circle class="fill" cx="26.989" cy="31" r="2.989"/>
</svg>