<svg width="72" height="72" fill="currentColor" version="1.1" id="svg451" xmlns="http://www.w3.org/2000/svg">
  <defs><style>.line {fill:none;stroke:#000;stroke-width:2;stroke-linecap:round;stroke-linejoin:round}</style></defs>
  <g id="coin">
    <path class="line" d="M20.23 55.4c3.23 3.04 8.67 3.77 11.61 3.74 18.83-.22 29.83-22.34 25.14-36.28-1.53-4.52-5.96-7.99-9.89-9.37" id="path1"/>
    <path class="line" d="m29.811 23.688-.586 2.064 3.977 1.054-3.99 12.692c-.545 1.734-2.994 2.232-5.91 1.948l-.305 1.963 15.992 1.784.613-2.148s-4.756-.687-4.268-2.412l5.02-17.765c-3.372.587-7.526.998-10.543.82zm-1.087 33.738c-26.791 0-16.325-45.22 11.401-45.22 26.791 0 16.234 45.22-11.401 45.22z" id="path2"/>
    <path class="line" d="m52.04 44 1.61 1.03m-3.92 2.17 1.47 1.3m-4.5 2.02 1.3 1.42m-4.49 1.26 1.17 1.79m-4.75.44.81 1.66" id="path3"/>
  </g>
</svg>