<?xml version="1.0" encoding="UTF-8" standalone="no"?>
<svg width="72" height="72" fill="currentColor" version="1.1" xmlns="http://www.w3.org/2000/svg" xmlns:svg="http://www.w3.org/2000/svg">
  <defs>
    <style>
      .nof {fill:none} .nos {stroke:none}
      .fill {fill:#000} .line {stroke:#000;stroke-width:2;stroke-linecap:round;stroke-linejoin:round}
    </style>
  </defs>
  <g id="hamsa">
    <path class="line nof" d="m 43.998,13.409 c 3.797,0.015 3.73,2.777 3.73,2.777 v 19.487 c 0,-3.837 4.923,-7.324 7.627,-5.104 0,0 2.158,30.993 -19.355,30.993 -21.513,0 -19.355,-30.993 -19.355,-30.993 2.704,-2.22 7.627,1.267 7.627,5.104 V 16.185 c 0,0 -0.066,-2.76 3.73,-2.777 3.797,-0.015 4.089,2.777 4.089,2.777 v -2.969 c 0,0 -0.292,-2.778 3.834,-2.778 4.127,0 3.984,2.778 3.984,2.778 v 2.969 c 0,0 0.292,-2.792 4.089,-2.777 z" />
    <path class="line nof" d="m 47.729,35.672 v 3.131 m -23.458,-3.13 v 3.13 m 7.82,-22.617 v 18.402 m 7.818,-18.402 v 18.402" />
    <path class="line nof" d="m 36,53.905 c 7.035,0 11.729,-6.772 11.729,-6.772 0,0 -4.694,-6.771 -11.729,-6.771 -7.035,0 -11.729,6.771 -11.729,6.771 0,0 4.693,6.772 11.729,6.772 z" />
    <circle class="line nof" cx="36" cy="47.133" r="5.843" />
    <circle class="fill nos" cx="36" cy="47.133" r="2.746" />
  </g>
</svg>