<svg width="72" height="72" fill="currentColor" version="1.1" xmlns="http://www.w3.org/2000/svg">
  <defs>
    <style>
      .line {fill:none;stroke:#000;stroke-width:2;stroke-linecap:round;stroke-linejoin:round}
      .fill {fill:#000;stroke:none}
    </style>
  </defs>
  <g id="fawkes-mask">
    <path class="fill" d="M32.632 50.738c-.672.449.612 4.681.772 7.394l.164 2.776h4.836l.164-2.776c.16-2.713 1.444-6.945.772-7.394-.658-.44-6.05-.439-6.708 0z" />
    <path class="line" d="m49.335 38.847-2.82 4.884h-7.61l-1.578-2.733m-14.662-2.151 2.82 4.884h7.61l1.578-2.733m-4.357 5.849h11.368" />
    <path class="line" d="M56.087 33.107c1.067-8.566-.472-15.792-1.555-17.29-4.598-6.354-32.466-6.354-37.064 0-1.083 1.498-2.622 8.724-1.555 17.29 1.885 15.125 12.022 27.8 20.087 27.8s18.202-12.675 20.087-27.8z" />
    <ellipse class="fill" cx="26.708" cy="28.609" rx="4.422" ry="1.715" />
    <ellipse class="fill" cx="45.292" cy="28.609" rx="4.422" ry="1.715" />
    <path class="line" d="M51.173 22.614c-1.9-1.973-4.557-2.1-6.008-1.211l-6.613 4.053 1.033 9.629c.213 1.99 3.302 2.288 1.83 4.837-1.357-.24-2.853.313-4.065 1.076 0 0-.854.63-1.35.63-.496 0-1.35-.63-1.35-.63-1.212-.763-2.708-1.315-4.065-1.076-1.472-2.55 1.617-2.847 1.83-4.837l1.033-9.63-6.613-4.052c-1.451-.89-4.107-.762-6.008 1.21" />
  </g>
</svg>