<svg width="72" height="72" fill="currentColor" version="1.1" xmlns="http://www.w3.org/2000/svg"><path id="mask" style="fill:none;stroke:#000;stroke-width:2;stroke-linecap:round;stroke-linejoin:round" d="M17.664 43.779c5.608-3.096 11.346-1.411 14.632 2.971-6.475 4.158-13.548 1.216-14.632-2.971zm38.014 0c-5.609-3.096-11.347-1.411-14.633 2.971 6.475 4.158 13.548 1.216 14.633-2.971zM18.712 22.54c-1.583 4.002-1.533 8.837-.826 12.55-2.136-.505-4.208-4.163-5.92-8.543-3.384 3.953-1.257 9.757 1.66 13.45-2.956.097-4.352-.38-6.33-1.395.462 9.06 6.925 23.507 29.375 16.318 16.943 5.201 23.211-2.315 26.056-8.986m1.197-3.54c.6-2.318.733-4.114.758-4.565 0 0-1.889.198-2.828.11-3.365-.315-5.509-2.064-9.882-2.263-4.373-.2-15.882 4.13-20.322-.997-2.112-2.438-.988-6.552.913-9.635-3.528-.216-6.893 2.925-7.654 7.9-2.426-6.666-1.472-11.585 5.864-17.99-4.374-.052-7.794 2.202-9.867 4.365"/></svg>