<svg width="830" height="460" xml:space="preserve" xmlns="http://www.w3.org/2000/svg"><path style="fill:#fff" d="M0 0h830v460H0z"/><circle style="fill:#f2f5f8;stroke-width:1.09744" cx="276.665" cy="230" r="122.42"/><path style="fill:#151723;stroke-width:1.09744" d="M369.108 217.314c-2.009 0-3.183-1.098-3.183-3.183v-3.885h-12.291c-1.624 0-3.38-.505-3.38-2.689 0-1.196.56-2.293 1.942-4.225l13.63-19.754c1.306-1.953 2.667-2.14 3.48-2.14.768 0 2.984.253 2.984 3.183v20.346h2.437c2.04 0 2.886 1.109 2.886 2.634 0 2.063-1.372 2.634-2.886 2.634h-2.437v3.885c0 2.085-1.174 3.183-3.182 3.183zm-3.183-12.336v-15.517h1.438l-11.743 17.218v-1.69zm27.414 12.434c-4.148 0-7.309-1.558-9.504-4.675-4.411-6.343-3.742-18.042-1.843-23.287 1.7-4.588 5.059-8.11 11.347-8.11 4.181 0 7.342 1.525 9.504 4.576 4.324 6.025 3.83 17.658 1.789 23.233-2.26 6.31-6.684 8.263-11.293 8.263zm0-5.223c2.261 0 3.918-1.043 4.972-3.14 2.227-4.257 2.227-15.396 0-19.457-1.065-2.019-2.722-3.04-4.972-3.04-2.217 0-3.885 1.01-4.971 3.04-2.228 4.05-2.228 15.2 0 19.458 1.097 2.085 2.754 3.139 4.971 3.139zm35.47 5.125c-2.009 0-3.183-1.098-3.183-3.183v-3.885h-12.291c-1.24 0-5.488-1.514-1.438-6.914l13.63-19.754c1.306-1.953 2.667-2.14 3.479-2.14.768 0 2.985.253 2.985 3.183v20.346h2.436c2.042 0 2.887 1.109 2.887 2.634 0 2.063-1.372 2.634-2.887 2.634h-2.436v3.885c0 2.085-1.174 3.183-3.183 3.183zm-3.183-12.336v-15.517h1.438l-11.743 17.218v-1.69zM351.165 247.844q-.45 0-.692-.241-.23-.242-.23-.702v-9.142q0-.472.23-.724.242-.264.626-.264.35 0 .527.143.186.12.428.428l5.882 7.638h-.395v-7.265q0-.45.23-.691.242-.242.692-.242.45 0 .68.242.23.241.23.691v9.219q0 .428-.219.68-.22.241-.582.241-.35 0-.57-.142-.198-.143-.45-.45l-5.872-7.638h.385v7.265q0 .46-.231.702-.23.241-.68.241zm15.43.033q-1.57 0-2.755-.691-1.163-.692-1.81-1.932-.648-1.262-.648-2.952 0-1.273.373-2.293.373-1.032 1.042-1.756.692-.736 1.647-1.12.965-.395 2.15-.395 1.58 0 2.755.692 1.163.68 1.811 1.92.647 1.24.647 2.93 0 1.273-.373 2.305-.373 1.032-1.064 1.767-.68.735-1.646 1.141-.955.384-2.14.384zm0-1.69q.998 0 1.69-.46.702-.462 1.075-1.34.384-.878.384-2.085 0-1.843-.834-2.853-.812-1.01-2.315-1.01-.988 0-1.69.461-.703.45-1.087 1.317-.373.856-.373 2.085 0 1.833.834 2.854.834 1.031 2.316 1.031zm10.14 1.657q-.472 0-.735-.263-.242-.274-.242-.757v-8.297h-2.996q-.395 0-.625-.22-.22-.23-.22-.614 0-.395.22-.604.23-.22.625-.22h7.957q.395 0 .614.22.23.198.23.604 0 .384-.23.615-.22.22-.614.22h-2.996v8.296q0 .472-.242.757-.241.263-.735.263zm11.128 0q-.472 0-.757-.263-.264-.274-.264-.78v-8.867q0-.504.264-.768.274-.274.779-.274h5.366q.396 0 .604.197.198.198.198.571 0 .384-.198.604-.198.197-.604.197h-4.444v3.062h4.115q.384 0 .582.198.22.197.22.57 0 .384-.22.604-.198.197-.582.197h-4.115v3.72q0 1.043-.955 1.043zm12.28.033q-1.569 0-2.754-.691-1.164-.692-1.811-1.932-.647-1.262-.647-2.952 0-1.273.373-2.293.373-1.032 1.042-1.756.692-.736 1.646-1.12.966-.395 2.151-.395 1.58 0 2.755.692 1.163.68 1.81 1.92.648 1.24.648 2.93 0 1.273-.373 2.305-.373 1.032-1.064 1.767-.68.735-1.647 1.141-.954.384-2.14.384zm0-1.69q.999 0 1.69-.46.703-.462 1.076-1.34.384-.878.384-2.085 0-1.843-.834-2.853-.812-1.01-2.316-1.01-.987 0-1.69.461-.702.45-1.086 1.317-.373.856-.373 2.085 0 1.833.834 2.854.834 1.031 2.315 1.031zm11.71 1.69q-1.12 0-1.986-.296-.845-.296-1.427-.856-.582-.582-.878-1.449-.296-.856-.296-1.997v-5.52q0-.505.241-.757.264-.242.735-.242.472 0 .725.242.263.241.263.757v5.498q0 1.46.659 2.195.68.724 1.953.724 1.273 0 1.932-.724.658-.735.658-2.195v-5.498q0-.505.241-.757.264-.242.736-.242.46 0 .702.242.263.241.263.757v5.52q0 1.503-.526 2.535-.505 1.032-1.526 1.547-1.01.505-2.502.505zm7.759-.033q-.45 0-.691-.241-.23-.242-.23-.702v-9.142q0-.472.23-.724.241-.264.625-.264.351 0 .527.143.186.12.428.428l5.882 7.638h-.395v-7.265q0-.45.23-.691.242-.242.692-.242.45 0 .68.242.23.241.23.691v9.219q0 .428-.219.68-.22.241-.581.241-.352 0-.571-.142-.198-.143-.45-.45l-5.871-7.638h.384v7.265q0 .46-.23.702-.231.241-.681.241zm11.61-.12q-.504 0-.778-.264-.264-.274-.264-.779v-8.747q0-.504.264-.768.274-.274.779-.274h2.985q2.722 0 4.192 1.394 1.493 1.393 1.493 4.005 0 1.306-.384 2.316-.374.999-1.109 1.69-.724.691-1.778 1.064-1.042.352-2.414.352zm.923-1.625h1.931q.955 0 1.646-.23.703-.241 1.164-.702.472-.472.702-1.186.23-.724.23-1.679 0-1.91-.932-2.842-.933-.933-2.81-.933h-1.931z"/><path style="fill:#54565f;stroke-width:1.09744" d="M350.748 300.5q-.242 0-.374-.143-.131-.143-.131-.395v-1.756q0-.57.57-.57h.68l-.68.24q.385-.515.615-1.108.241-.614.351-1.36.11-.747.11-1.713v-1.371q0-.33.176-.483.175-.176.482-.176h3.578q.33 0 .483.176.175.153.175.483v5.838l-.526-.527h1.053q.275 0 .406.143.154.143.154.428v1.756q0 .538-.494.538-.241 0-.373-.143t-.132-.395v-1.405h-5.64v1.405q0 .538-.483.538zm1.327-2.865h3.6v-5.059h-2.765v1.317q0 1.064-.209 2.052-.208.977-.626 1.69zm10.196 1.054q-1.01 0-1.745-.44-.736-.438-1.153-1.228-.395-.812-.395-1.899 0-.823.23-1.47.231-.67.67-1.13.44-.473 1.032-.714.614-.253 1.36-.253 1.01 0 1.746.44.735.438 1.13 1.25.406.79.406 1.888 0 .823-.23 1.47-.23.648-.67 1.131-.439.472-1.053.724-.593.242-1.35.242zm0-.922q.636 0 1.12-.307.482-.308.734-.911.275-.593.275-1.438 0-1.295-.582-1.975-.57-.68-1.547-.68-.648 0-1.13.307-.473.296-.736.889-.252.581-.252 1.448 0 1.273.581 1.976.582.68 1.548.68zm8.088.922q-1.032 0-1.789-.45-.746-.45-1.163-1.262-.395-.823-.395-1.899 0-.823.23-1.47.23-.648.67-1.109.439-.472 1.053-.713.626-.242 1.405-.242.516 0 1.064.154.549.154 1.01.538.143.099.187.241.043.143 0 .286-.044.131-.143.23-.099.088-.253.099-.142.01-.296-.099-.373-.285-.746-.395-.384-.11-.735-.11-.55 0-.966.187-.406.175-.692.494-.285.329-.439.812-.142.483-.142 1.12 0 1.228.581 1.953.582.713 1.658.713.35 0 .724-.11.384-.11.768-.395.154-.11.296-.099.143.011.242.11.099.088.132.23.043.143 0 .286-.044.132-.187.23-.45.373-.988.538-.537.154-1.053.154zm5.783-.033q-.274 0-.428-.154-.153-.153-.153-.439v-5.476h-2.074q-.538 0-.538-.472 0-.208.142-.33.143-.13.396-.13h5.3q.527 0 .527.45 0 .23-.143.35-.131.11-.384.11h-2.085v5.476q0 .286-.143.44-.131.153-.428.153zm5.86 2.557q-.208 0-.34-.11-.131-.11-.153-.307-.011-.187.066-.384l.976-2.195v.494l-2.721-6.322q-.088-.208-.055-.395.033-.186.175-.296.143-.11.396-.11.23 0 .35.1.132.098.231.35l2.327 5.707h-.384l2.36-5.707q.109-.252.24-.35.132-.1.374-.1.23 0 .34.11.132.11.143.296.032.176-.055.384l-3.633 8.396q-.11.252-.252.351-.132.099-.373.099zm6.465-2.557q-.286 0-.44-.154-.142-.153-.142-.439v-5.74q0-.329.176-.482.175-.176.482-.176h4.708q.308 0 .483.176.176.153.176.483v5.74q0 .285-.154.438-.153.154-.428.154-.274 0-.428-.154-.142-.153-.142-.439v-5.476h-3.72v5.476q0 .286-.143.44-.143.153-.428.153zm8.285 0q-.285 0-.439-.154-.142-.153-.142-.439v-5.915q0-.296.142-.439.154-.143.44-.143.274 0 .405.143.154.143.154.439v2.381h3.753v-2.381q0-.296.143-.439.154-.143.428-.143t.428.143q.154.143.154.439v5.915q0 .286-.154.44-.154.153-.428.153t-.428-.154q-.143-.153-.143-.439v-2.59h-3.753v2.59q0 .286-.143.44-.142.153-.428.153zm8.264 0q-.154 0-.285-.066-.11-.055-.187-.198-.055-.142-.055-.35v-5.905q0-.285.143-.428.143-.143.384-.143.252 0 .384.143.143.143.143.428v5.334h-.351l4.126-5.532q.11-.153.274-.252.154-.11.395-.11.176 0 .286.055.11.055.175.198.066.131.066.35v5.916q0 .275-.142.428-.132.143-.385.143-.252 0-.395-.143-.131-.153-.131-.428v-5.344h.35l-4.137 5.542q-.098.142-.252.252-.143.11-.395.11zm8.286 0q-.154 0-.286-.066-.11-.055-.186-.198-.055-.142-.055-.35v-5.905q0-.285.143-.428.142-.143.384-.143.252 0 .384.143.142.143.142.428v5.334h-.35l4.126-5.532q.11-.153.274-.252.154-.11.395-.11.176 0 .285.055.11.055.176.198.066.131.066.35v5.916q0 .275-.143.428-.132.143-.384.143t-.395-.143q-.132-.153-.132-.428v-5.344h.351l-4.137 5.542q-.099.142-.252.252-.143.11-.395.11zm2.48-7.89q-.746 0-1.394-.385-.625-.384-.933-1.163-.066-.209-.01-.34.054-.143.208-.198.153-.055.285.011.132.055.209.253.252.537.647.823.406.274.977.274.582 0 .977-.274.395-.286.647-.823.099-.198.23-.253.132-.066.275-.01.175.054.208.197.055.131-.032.34-.33.78-.955 1.163-.615.384-1.361.384zm10.48 10.436q-.208 0-.34-.11-.131-.11-.153-.307-.011-.187.065-.384l.977-2.195v.494l-2.721-6.321q-.088-.209-.055-.396.033-.186.175-.296.143-.11.395-.11.23 0 .351.1.132.098.23.35l2.328 5.707h-.385l2.36-5.707q.11-.252.241-.35.132-.1.373-.1.23 0 .34.11.132.11.143.296.033.176-.055.385l-3.632 8.395q-.11.252-.252.351-.132.099-.374.099zm10.053-2.557q-.241 0-.384-.143-.132-.153-.132-.406v-5.926q0-.198.055-.33.055-.142.176-.208.11-.066.285-.066.176 0 .285.055.11.044.198.143.088.088.143.209l2.414 4.301 2.414-4.301q.055-.132.143-.209.088-.099.197-.143.11-.055.275-.055.252 0 .384.154.132.143.132.45v5.926q0 .253-.132.406-.132.143-.384.143-.242 0-.384-.143-.132-.153-.132-.406v-5.125h.33l-2.426 4.258q-.055.11-.154.198-.099.066-.252.066-.176 0-.274-.088-.088-.088-.154-.187l-2.425-4.258h.329v5.125q0 .253-.143.406-.132.143-.373.143zm11.018.033q-.713 0-1.273-.275-.548-.285-.878-.768-.329-.483-.329-1.075 0-.768.384-1.207.395-.44 1.295-.626.911-.187 2.47-.187h.636v.747h-.626q-1.152 0-1.81.11-.648.098-.922.35-.253.253-.253.725 0 .582.395.955.406.373 1.109.373.57 0 .987-.275.44-.274.68-.735.253-.472.253-1.075V294.1q0-.877-.35-1.262-.352-.395-1.164-.395-.494 0-.988.132t-1.053.406q-.198.099-.34.066-.143-.044-.231-.154-.088-.11-.099-.252-.01-.154.055-.296.088-.143.252-.23.626-.308 1.23-.45.614-.144 1.163-.144.889 0 1.47.297.582.285.867.878.286.581.286 1.503v3.841q0 .286-.143.44-.132.153-.384.153-.274 0-.406-.154-.143-.153-.143-.439v-1.108h.132q-.11.538-.439.922-.307.384-.78.592-.471.209-1.053.209zm5.981-.033q-.153 0-.285-.066-.11-.055-.187-.198-.054-.142-.054-.35v-5.905q0-.285.142-.428.143-.143.384-.143.253 0 .384.143.143.143.143.428v5.334h-.351l4.126-5.531q.11-.154.275-.253.153-.11.395-.11.175 0 .285.055.11.055.176.198.066.131.066.351v5.915q0 .275-.143.428-.132.143-.384.143-.253 0-.395-.143-.132-.153-.132-.428v-5.344h.351l-4.137 5.542q-.099.142-.253.252-.142.11-.395.11zm2.48-7.89q-.746 0-1.393-.385-.626-.384-.933-1.163-.066-.209-.011-.34.055-.143.208-.198.154-.055.286.011.131.055.208.253.253.537.648.823.406.274.977.274.581 0 .976-.274.395-.286.648-.823.099-.198.23-.253.132-.066.275-.01.175.054.208.197.055.131-.033.34-.33.78-.955 1.163-.614.384-1.36.384zm8.187 7.912q-1.02 0-1.777-.44-.736-.45-1.153-1.327-.395-.878-.395-2.151v-1.065q0-1.371.351-2.293.373-.922 1.109-1.493.746-.57 1.854-.867l2.075-.581q.252-.066.428.01.186.088.23.308.055.241-.066.406-.11.176-.373.241l-2.195.593q-.768.209-1.273.637-.516.428-.768 1.053-.252.615-.252 1.394v.549h-.198q.176-.626.538-1.076.373-.45.91-.691.55-.253 1.219-.253.889 0 1.57.428.68.428 1.053 1.207.384.78.384 1.855 0 1.076-.406 1.888-.395.79-1.13 1.229-.725.439-1.713.439zm-.043-.922q.68 0 1.152-.296.483-.308.735-.89.253-.58.253-1.415 0-1.23-.571-1.91-.57-.68-1.558-.68-.67 0-1.153.296-.472.297-.724.867-.253.55-.253 1.328 0 1.328.55 2.03.57.681 1.558.681zm6.617 3.446q-.208 0-.34-.11-.132-.11-.154-.307-.01-.187.066-.384l.977-2.195v.494l-2.722-6.321q-.088-.209-.055-.396.033-.186.176-.296.142-.11.395-.11.23 0 .351.1.132.098.23.35l2.327 5.707h-.384l2.36-5.707q.11-.252.24-.35.133-.1.374-.1.23 0 .34.11.132.11.143.296.033.176-.055.385l-3.632 8.395q-.11.252-.253.351-.132.099-.373.099zm7.946-2.557q-.275 0-.428-.154-.154-.153-.154-.439v-5.476h-2.074q-.538 0-.538-.472 0-.208.143-.33.142-.13.395-.13h5.3q.527 0 .527.45 0 .23-.143.35-.131.11-.384.11h-2.085v5.476q0 .286-.142.44-.132.153-.428.153zm4.861 0q-.285 0-.439-.154-.142-.153-.142-.439v-5.915q0-.296.142-.439.154-.143.44-.143.274 0 .405.143.154.143.154.44v2.38h3.753v-2.38q0-.297.143-.44.153-.143.428-.143.274 0 .428.143.153.143.153.44v5.914q0 .286-.153.44-.154.153-.428.153-.275 0-.428-.154-.143-.153-.143-.439v-2.59h-3.753v2.59q0 .286-.143.44-.142.153-.428.153zm8.34-.099q-.285 0-.438-.154-.154-.153-.154-.439v-5.816q0-.296.143-.439.153-.143.439-.143.274 0 .406.143.153.143.153.44v1.974h2.086q1.317 0 1.997.582.68.57.68 1.613 0 .692-.329 1.208-.307.493-.91.768-.582.274-1.45.274zm.55-.823h1.975q.812 0 1.25-.34.44-.351.44-1.065 0-.724-.44-1.053-.438-.34-1.25-.34h-1.976zm9.35.955q-1.01 0-1.745-.44-.736-.438-1.153-1.228-.395-.812-.395-1.899 0-.823.23-1.47.231-.67.67-1.13.44-.473 1.032-.714.614-.253 1.36-.253 1.01 0 1.746.44.735.438 1.13 1.25.406.79.406 1.888 0 .823-.23 1.47-.23.648-.67 1.131-.439.472-1.053.724-.593.242-1.35.242zm0-.922q.636 0 1.12-.307.482-.308.734-.911.275-.593.275-1.438 0-1.295-.582-1.975-.57-.68-1.547-.68-.648 0-1.13.307-.473.296-.736.889-.252.581-.252 1.448 0 1.273.581 1.976.582.68 1.548.68zm5.662.889q-.241 0-.384-.143-.131-.153-.131-.406v-5.926q0-.198.055-.33.054-.142.175-.208.11-.066.285-.066.176 0 .286.055.11.044.197.143.088.088.143.209l2.414 4.301 2.415-4.301q.055-.132.142-.209.088-.099.198-.143.11-.055.274-.055.253 0 .384.154.132.143.132.45v5.926q0 .253-.132.406-.131.143-.384.143-.241 0-.384-.143-.131-.153-.131-.406v-5.125h.329l-2.426 4.258q-.054.11-.153.198-.099.066-.253.066-.175 0-.274-.088-.088-.088-.154-.187l-2.425-4.258h.33v5.125q0 .253-.143.406-.132.143-.374.143zm10.382 2.557q-.208 0-.34-.11-.132-.11-.154-.307-.01-.187.066-.384l.977-2.195v.494l-2.722-6.321q-.087-.209-.055-.396.033-.186.176-.296.143-.11.395-.11.23 0 .351.1.132.098.23.35l2.327 5.707h-.384l2.36-5.707q.11-.252.241-.35.132-.1.373-.1.23 0 .34.11.132.11.143.296.033.176-.055.385l-3.632 8.395q-.11.252-.253.351-.131.099-.373.099zm5.86-2.59q-.35 0-.57-.209-.209-.23-.209-.57 0-.34.209-.549.208-.23.57-.23.352 0 .55.23.208.209.208.549 0 .34-.209.57-.197.209-.548.209zm-169.214-19.776q-1.12 0-2.052-.285-.922-.286-1.547-.79-.176-.132-.23-.286-.045-.153-.012-.307.044-.154.154-.252.11-.1.274-.11.176-.011.351.11.406.296.867.493.472.198.988.297.538.099 1.13.099.922 0 1.504-.209.593-.208.878-.626.285-.428.285-1.053 0-.922-.57-1.35-.55-.439-1.701-.439h-2.02q-.241 0-.384-.132-.143-.131-.143-.35 0-.242.143-.352.143-.132.384-.132h1.79q1.118 0 1.69-.439.57-.439.57-1.295 0-.57-.275-.976-.274-.406-.812-.626-.526-.208-1.328-.208-.746 0-1.46.197-.69.198-1.294.637-.187.11-.351.11-.154-.012-.275-.11-.11-.11-.153-.275-.033-.153.033-.307.054-.154.23-.274.68-.527 1.558-.769.89-.252 1.8-.252 1.174 0 1.943.34.779.34 1.163.955.395.615.395 1.449 0 .932-.549 1.558-.537.626-1.47.823v-.197q1.053.131 1.657.768.614.636.614 1.69 0 .889-.406 1.547-.406.637-1.25.988-.824.34-2.119.34zm7.968 0q-.714 0-1.273-.274-.549-.286-.878-.768-.33-.483-.33-1.076 0-.768.385-1.207.395-.44 1.295-.626.91-.186 2.469-.186h.636v.746h-.625q-1.153 0-1.811.11-.647.099-.922.35-.252.253-.252.725 0 .582.395.955.406.373 1.108.373.57 0 .988-.274.439-.275.68-.735.253-.472.253-1.076v-1.613q0-.878-.351-1.262-.352-.395-1.164-.395-.494 0-.987.131-.494.132-1.054.406-.197.1-.34.066-.143-.044-.23-.153-.088-.11-.1-.253-.01-.153.056-.296.087-.143.252-.23.625-.308 1.23-.45.614-.143 1.162-.143.89 0 1.47.296.583.285.868.878.285.582.285 1.504v3.84q0 .286-.142.44-.132.153-.385.153-.274 0-.406-.153-.142-.154-.142-.44v-1.108h.131q-.11.538-.439.922-.307.384-.779.593-.472.208-1.053.208zm6.047-.033q-.286 0-.44-.153-.142-.154-.142-.44v-5.739q0-.33.176-.483.175-.175.482-.175h4.708q.308 0 .483.175.176.154.176.483v5.74q0 .285-.154.439-.153.153-.428.153-.274 0-.428-.153-.142-.154-.142-.44v-5.476h-3.72v5.477q0 .285-.143.439-.143.153-.428.153zm8.23 0q-.153 0-.285-.066-.11-.054-.186-.197-.055-.143-.055-.351v-5.905q0-.285.142-.428.143-.142.384-.142.253 0 .384.142.143.143.143.428v5.334h-.351l4.126-5.531q.11-.154.275-.253.153-.11.395-.11.175 0 .285.056.11.055.176.197.066.132.066.351v5.916q0 .274-.143.428-.132.142-.384.142-.253 0-.395-.142-.132-.154-.132-.428v-5.345h.351l-4.137 5.542q-.099.143-.253.253-.142.11-.395.11zm9.768 0q-.275 0-.428-.153-.154-.154-.154-.44v-5.476h-2.074q-.538 0-.538-.472 0-.208.143-.329.142-.131.395-.131h5.3q.527 0 .527.45 0 .23-.142.35-.132.11-.385.11h-2.085v5.477q0 .285-.142.439-.132.153-.428.153zm5.86 2.557q-.209 0-.34-.11-.132-.11-.154-.307-.01-.186.066-.384l.977-2.195v.494l-2.722-6.321q-.088-.209-.055-.395.033-.187.176-.297.142-.11.395-.11.23 0 .351.1.132.098.23.35l2.327 5.707h-.384l2.36-5.706q.11-.253.24-.352.133-.098.374-.098.23 0 .34.11.132.11.143.296.033.175-.055.384l-3.633 8.395q-.11.253-.252.351-.132.1-.373.1zm6.486-2.656q-.286 0-.44-.153-.153-.154-.153-.44v-5.706q0-.285.154-.439.153-.153.439-.153h2.765q.823 0 1.35.208.527.198.78.615.252.395.252.987 0 .648-.472 1.109-.45.45-1.196.537v-.186q.878.033 1.372.494.515.472.515 1.218 0 .878-.647 1.394-.648.515-1.844.515zm.494-.779h2.337q.692 0 1.065-.296.384-.307.384-.878 0-.57-.384-.867-.373-.296-1.065-.296h-2.337zm0-3.116h2.217q.636 0 .987-.297.373-.296.373-.823 0-.527-.373-.812-.351-.285-.987-.285h-2.217zm8.845 4.027q-.713 0-1.273-.274-.549-.286-.878-.768-.33-.483-.33-1.076 0-.768.385-1.207.395-.44 1.295-.626.91-.186 2.47-.186h.636v.746h-.626q-1.152 0-1.81.11-.648.099-.923.351-.252.252-.252.724 0 .582.395.955.406.373 1.109.373.57 0 .987-.274.44-.275.68-.735.253-.472.253-1.076v-1.613q0-.878-.351-1.262-.351-.395-1.163-.395-.494 0-.988.131-.494.132-1.054.406-.197.1-.34.066-.142-.044-.23-.153-.088-.11-.1-.253-.01-.153.056-.296.088-.143.252-.23.626-.308 1.23-.45.614-.143 1.163-.143.889 0 1.47.296.582.285.867.878.286.582.286 1.504v3.84q0 .286-.143.44-.132.153-.384.153-.275 0-.406-.153-.143-.154-.143-.44v-1.108h.132q-.11.538-.44.922-.307.384-.778.593-.472.208-1.054.208zm6.047-.033q-.285 0-.439-.153-.143-.154-.143-.44v-5.915q0-.296.143-.439.154-.142.439-.142.274 0 .406.142.154.143.154.44v2.38h3.753v-2.38q0-.297.143-.44.153-.142.428-.142.274 0 .428.142.153.143.153.44v5.915q0 .285-.153.439-.154.153-.428.153-.275 0-.428-.153-.143-.154-.143-.44v-2.59h-3.753v2.59q0 .286-.143.44-.143.153-.428.153zm8.264 0q-.154 0-.286-.066-.11-.054-.186-.197-.055-.143-.055-.351v-5.905q0-.285.143-.428.142-.142.384-.142.252 0 .384.142.142.143.142.428v5.334h-.35l4.126-5.531q.11-.154.274-.252.154-.11.395-.11.176 0 .285.055.11.055.176.197.066.132.066.351v5.916q0 .274-.143.428-.132.142-.384.142t-.395-.142q-.132-.154-.132-.428v-5.345h.351l-4.137 5.542q-.099.143-.252.253-.143.11-.395.11zm8.285 0q-.153 0-.285-.066-.11-.054-.187-.197-.054-.143-.054-.351v-5.905q0-.285.142-.428.143-.142.384-.142.253 0 .384.142.143.143.143.428v5.334h-.351l4.126-5.531q.11-.154.275-.252.153-.11.395-.11.175 0 .285.055.11.055.176.197.066.132.066.351v5.916q0 .274-.143.428-.132.142-.384.142-.253 0-.395-.142-.132-.154-.132-.428v-5.345h.351l-4.137 5.542q-.099.143-.253.253-.142.11-.395.11zm2.48-7.89q-.746 0-1.393-.384-.626-.385-.933-1.164-.066-.208-.011-.34.055-.143.208-.198.154-.054.286.011.132.055.208.253.253.538.648.823.406.274.977.274.581 0 .976-.274.395-.285.648-.823.099-.198.23-.253.132-.065.275-.01.175.054.208.197.055.132-.033.34-.33.78-.955 1.164-.614.384-1.36.384zm9.515 10.436q-.285 0-.428-.153-.142-.143-.142-.428v-8.484q0-.285.142-.428.143-.153.406-.153.286 0 .428.153.154.143.154.428v1.35l-.154-.197q.23-.812.89-1.273.68-.483 1.613-.483.921 0 1.602.439.691.428 1.064 1.229.384.79.384 1.899 0 1.097-.384 1.898-.373.79-1.053 1.23-.68.438-1.613.438-.933 0-1.603-.472-.67-.483-.91-1.273h.175v3.688q0 .285-.154.428-.153.153-.428.153zm2.678-3.446q.648 0 1.12-.307.482-.307.735-.91.274-.593.274-1.438 0-1.295-.582-1.976-.57-.68-1.547-.68-.636 0-1.12.307-.482.296-.746.889-.252.582-.252 1.449 0 1.273.582 1.975.581.68 1.547.68zm8.264.922q-1.098 0-1.888-.428-.779-.439-1.218-1.229-.428-.79-.428-1.899 0-1.075.428-1.876.428-.812 1.163-1.262.747-.45 1.734-.45.692 0 1.251.241.55.23.933.67.395.439.593 1.064.208.626.208 1.405 0 .23-.131.34-.132.099-.373.099h-4.939v-.746h4.664l-.23.186q0-.768-.23-1.295-.231-.537-.67-.823-.428-.285-1.076-.285-.724 0-1.229.34-.494.33-.746.922-.252.582-.252 1.36v.089q0 1.306.625 1.986.637.68 1.8.68.483 0 .955-.131.482-.132.932-.428.198-.132.352-.11.175 0 .274.099.099.087.132.23.044.132-.033.285-.055.154-.242.275-.472.34-1.108.527-.637.186-1.262.186zm7.506 0q-1.031 0-1.789-.45-.746-.45-1.163-1.262-.395-.823-.395-1.898 0-.823.23-1.471.231-.647.67-1.108.439-.472 1.054-.714.625-.241 1.404-.241.516 0 1.065.153.549.154 1.01.538.142.099.186.242.044.142 0 .285-.044.132-.143.23-.098.088-.252.1-.143.01-.296-.1-.374-.285-.747-.395-.384-.11-.735-.11-.549 0-.966.187-.406.176-.691.494-.285.33-.439.812-.143.483-.143 1.12 0 1.229.582 1.953.582.713 1.657.713.351 0 .724-.11.384-.11.769-.395.153-.11.296-.098.143.01.241.11.1.087.132.23.044.143 0 .285-.044.132-.187.23-.45.374-.987.538-.538.154-1.054.154zm5.323 2.524q-.209 0-.34-.11-.132-.11-.154-.307-.011-.186.066-.384l.977-2.195v.494l-2.722-6.321q-.088-.209-.055-.395.033-.187.176-.297.142-.11.395-.11.23 0 .351.1.132.098.23.35l2.327 5.707h-.384l2.36-5.706q.11-.253.24-.351.133-.1.374-.1.23 0 .34.11.132.11.143.297.033.175-.055.384l-3.633 8.395q-.11.253-.252.351-.132.1-.373.1zm6.464 0q-.286 0-.428-.153-.143-.143-.143-.428v-8.484q0-.285.143-.428.142-.153.406-.153.285 0 .428.153.154.143.154.428v1.35l-.154-.197q.23-.812.889-1.273.68-.483 1.613-.483.922 0 1.602.439.692.428 1.065 1.229.384.79.384 1.899 0 1.097-.384 1.898-.373.79-1.054 1.23-.68.438-1.613.438-.933 0-1.602-.472-.67-.483-.911-1.273h.175v3.688q0 .285-.153.428-.154.153-.428.153zm2.678-3.446q.647 0 1.119-.307.483-.307.735-.91.275-.593.275-1.438 0-1.295-.582-1.976-.57-.68-1.547-.68-.637 0-1.12.307-.483.296-.746.889-.252.582-.252 1.449 0 1.273.581 1.975.582.68 1.548.68zm8.088.922q-1.032 0-1.79-.45-.745-.45-1.162-1.262-.395-.823-.395-1.898 0-.823.23-1.471.23-.647.67-1.108.438-.472 1.053-.714.625-.241 1.405-.241.515 0 1.064.153.549.154 1.01.538.143.099.186.242.044.142 0 .285-.043.132-.142.23-.1.088-.253.1-.142.01-.296-.1-.373-.285-.746-.395-.384-.11-.736-.11-.548 0-.965.187-.406.176-.692.494-.285.33-.439.812-.142.483-.142 1.12 0 1.229.581 1.953.582.713 1.657.713.352 0 .725-.11.384-.11.768-.395.154-.11.296-.098.143.01.242.11.099.087.131.23.044.143 0 .285-.043.132-.186.23-.45.374-.988.538-.538.154-1.053.154zm8.011-.033q-.285 0-.439-.153-.143-.154-.143-.44v-5.915q0-.296.143-.439.154-.142.439-.142.274 0 .406.142.154.143.154.44v2.38h3.753v-2.38q0-.297.143-.44.153-.142.428-.142.274 0 .428.142.153.143.153.44v5.915q0 .285-.153.439-.154.153-.428.153-.275 0-.428-.153-.143-.154-.143-.44v-2.59h-3.753v2.59q0 .286-.143.44-.143.153-.428.153zm10.865.033q-1.098 0-1.888-.428-.78-.439-1.218-1.229-.428-.79-.428-1.899 0-1.075.428-1.876.428-.812 1.163-1.262.746-.45 1.734-.45.692 0 1.251.241.549.23.933.67.395.439.593 1.064.208.626.208 1.405 0 .23-.132.34-.131.099-.373.099h-4.938v-.746h4.664l-.23.186q0-.768-.23-1.295-.231-.537-.67-.823-.428-.285-1.076-.285-.724 0-1.229.34-.494.33-.746.922-.253.582-.253 1.36v.089q0 1.306.626 1.986.636.68 1.8.68.483 0 .954-.131.483-.132.933-.428.198-.132.351-.11.176 0 .275.099.099.087.132.23.043.132-.033.285-.055.154-.242.275-.472.34-1.108.527-.637.186-1.262.186zm10.513 0q-.735 0-1.438-.175-.69-.176-1.196-.494-.175-.11-.241-.253-.055-.142-.044-.285.01-.143.099-.241.099-.1.252-.11.176-.033.351.099.45.285 1.021.428.582.142 1.152.142 1.032 0 1.47-.296.44-.307.44-.878 0-.549-.384-.834-.373-.285-1.054-.285h-1.229q-.23 0-.373-.11-.132-.132-.132-.33 0-.197.132-.307.143-.11.373-.11h1.097q.615 0 .966-.285.373-.285.373-.779 0-.527-.384-.823-.384-.307-1.295-.307-.548 0-1.064.131-.516.11-.977.385-.252.131-.428.087-.176-.055-.252-.208-.088-.154-.033-.34.055-.187.274-.297.549-.329 1.218-.483.67-.153 1.405-.153 1.306 0 1.953.516.67.515.67 1.437 0 .648-.45 1.109-.45.45-1.207.537v-.186q.867.033 1.372.494.526.45.526 1.218 0 .922-.746 1.47-.746.55-2.228.55zm5.345-.033q-.286 0-.44-.153-.142-.154-.142-.44v-5.915q0-.296.143-.439.153-.142.439-.142.274 0 .406.142.153.143.153.44v2.38h3.754v-2.38q0-.297.142-.44.154-.142.428-.142.275 0 .428.142.154.143.154.44v5.915q0 .285-.154.439-.153.153-.428.153-.274 0-.428-.153-.142-.154-.142-.44v-2.59h-3.754v2.59q0 .286-.142.44-.143.153-.428.153zm9.932.033q-.714 0-1.274-.274-.548-.286-.877-.768-.33-.483-.33-1.076 0-.768.384-1.207.395-.439 1.295-.626.911-.186 2.47-.186h.636v.746h-.625q-1.153 0-1.811.11-.648.099-.922.351-.252.252-.252.724 0 .582.395.955.406.373 1.108.373.57 0 .988-.274.439-.275.68-.735.253-.472.253-1.076v-1.613q0-.878-.352-1.262-.35-.395-1.163-.395-.494 0-.988.131-.493.132-1.053.406-.198.1-.34.066-.143-.044-.23-.153-.089-.11-.1-.253-.01-.153.055-.296.088-.143.253-.23.625-.308 1.229-.45.614-.143 1.163-.143.889 0 1.47.296.582.286.868.878.285.582.285 1.504v3.84q0 .286-.143.44-.131.153-.384.153-.274 0-.406-.153-.142-.154-.142-.44v-1.108h.131q-.11.538-.439.922-.307.384-.779.593-.472.208-1.053.208zm5.98-.033q-.153 0-.285-.066-.11-.054-.186-.197-.055-.143-.055-.351v-5.904q0-.286.142-.428.143-.143.385-.143.252 0 .384.143.142.142.142.428v5.333h-.35l4.125-5.531q.11-.154.275-.252.153-.11.395-.11.176 0 .285.055.11.055.176.197.066.132.066.351v5.916q0 .274-.143.428-.132.142-.384.142-.253 0-.395-.142-.132-.154-.132-.428v-5.345h.351l-4.137 5.542q-.099.143-.252.253-.143.11-.396.11zm2.48-7.89q-.745 0-1.393-.384-.626-.385-.933-1.164-.066-.208-.01-.34.054-.143.208-.197.153-.055.285.01.132.055.209.253.252.538.647.823.406.274.977.274.581 0 .976-.274.396-.285.648-.823.099-.198.23-.252.132-.066.275-.011.175.054.208.197.055.132-.033.34-.329.78-.954 1.164-.615.384-1.361.384zm5.016 9.734q-.241 0-.373-.143-.132-.142-.132-.395v-1.756q0-.57.57-.57h.681l-.68.241q.384-.516.614-1.108.242-.615.352-1.361.11-.746.11-1.712v-1.372q0-.33.175-.483.176-.175.483-.175h3.578q.329 0 .482.175.176.154.176.483v5.838l-.527-.526h1.054q.274 0 .406.142.153.143.153.428v1.756q0 .538-.493.538-.242 0-.374-.143-.131-.142-.131-.395v-1.404h-5.641v1.404q0 .538-.483.538zm1.328-2.864h3.6v-5.06h-2.766v1.317q0 1.065-.208 2.053-.209.976-.626 1.69zm10.437 1.053q-1.098 0-1.888-.428-.78-.439-1.218-1.229-.428-.79-.428-1.899 0-1.075.428-1.876.428-.812 1.163-1.262.746-.45 1.734-.45.691 0 1.251.241.549.23.933.67.395.439.593 1.064.208.626.208 1.405 0 .23-.132.34-.131.099-.373.099h-4.938v-.746h4.664l-.23.186q0-.768-.231-1.295-.23-.537-.67-.823-.427-.285-1.075-.285-.724 0-1.229.34-.494.33-.746.922-.253.582-.253 1.36v.089q0 1.306.626 1.986.636.68 1.8.68.483 0 .954-.131.483-.132.933-.428.198-.132.351-.11.176 0 .275.099.099.088.131.23.044.132-.032.286-.055.153-.242.274-.472.34-1.108.527-.637.186-1.262.186zm5.147-.033q-.286 0-.44-.153-.142-.154-.142-.44v-5.915q0-.296.143-.438.153-.143.439-.143.274 0 .406.143.153.142.153.438v2.382h3.754v-2.382q0-.296.142-.438.154-.143.428-.143.275 0 .428.143.154.142.154.438v5.916q0 .285-.154.439-.153.153-.428.153-.274 0-.428-.153-.142-.154-.142-.44v-2.59h-3.754v2.59q0 .286-.142.44-.143.153-.428.153zm10.623.033q-1.01 0-1.745-.439-.735-.439-1.152-1.229-.395-.812-.395-1.898 0-.824.23-1.471.23-.67.67-1.13.438-.472 1.031-.714.615-.252 1.36-.252 1.01 0 1.746.439.735.439 1.13 1.25.406.791.406 1.888 0 .824-.23 1.471-.23.648-.67 1.13-.439.472-1.053.725-.593.241-1.35.241zm0-.922q.636 0 1.12-.307.482-.307.735-.91.274-.593.274-1.438 0-1.295-.582-1.976-.57-.68-1.547-.68-.648 0-1.13.307-.472.296-.736.889-.252.582-.252 1.449 0 1.273.581 1.975.582.68 1.548.68zm5.52 2.14q-.143.187-.296.209-.154.033-.275-.055-.11-.088-.131-.241 0-.154.142-.34.23-.297.308-.615.087-.297.087-.549l.055.296q-.373 0-.592-.208-.209-.23-.209-.57 0-.341.198-.55.208-.23.548-.23.374 0 .582.252.209.242.209.714 0 .296-.055.614-.055.33-.198.648-.143.329-.384.625zm8.45-1.218q-.713 0-1.273-.274-.549-.285-.878-.768-.329-.483-.329-1.076 0-.768.384-1.207.395-.439 1.295-.626.911-.186 2.47-.186h.636v.746h-.626q-1.152 0-1.81.11-.648.099-.922.351-.253.252-.253.724 0 .582.395.955.406.373 1.109.373.57 0 .987-.274.44-.274.68-.735.253-.472.253-1.076v-1.613q0-.878-.35-1.262-.352-.395-1.164-.395-.494 0-.988.131-.494.132-1.053.406-.198.1-.34.066-.143-.044-.231-.153-.088-.11-.099-.253-.01-.153.055-.296.088-.143.252-.23.626-.308 1.23-.45.614-.143 1.163-.143.889 0 1.47.296.582.286.867.878.286.582.286 1.504v3.84q0 .286-.143.44-.132.153-.384.153-.274 0-.406-.153-.143-.154-.143-.44v-1.108h.132q-.11.538-.439.922-.307.384-.78.593-.471.208-1.053.208zm10.755-.033q-.274 0-.428-.153-.143-.154-.143-.44v-5.476h-2.776v.878q0 1.109-.11 1.954-.099.834-.329 1.448-.23.615-.615 1.021-.373.406-.921.691-.187.088-.352.044-.175-.033-.285-.131-.099-.11-.143-.275-.033-.153.044-.307.066-.154.253-.252.406-.23.67-.571.273-.34.427-.856.154-.516.209-1.196.065-.692.065-1.635v-1.109q0-.33.176-.483.176-.175.483-.175h3.698q.308 0 .483.175.176.154.176.483v5.74q0 .285-.154.439-.143.153-.428.153zm5.97.033q-1.097 0-1.887-.428-.78-.439-1.219-1.229-.428-.79-.428-1.899 0-1.075.428-1.876.428-.812 1.164-1.262.746-.45 1.734-.45.691 0 1.25.241.55.23.934.67.395.439.592 1.064.209.626.209 1.405 0 .23-.132.34-.132.099-.373.099h-4.939v-.746h4.665l-.23.186q0-.768-.231-1.295-.23-.537-.67-.823-.428-.285-1.075-.285-.725 0-1.23.34-.493.33-.746.922-.252.582-.252 1.36v.089q0 1.306.625 1.986.637.68 1.8.68.483 0 .955-.131.483-.132.933-.428.197-.132.351-.11.176 0 .274.099.1.088.132.23.044.132-.033.286-.055.153-.241.274-.472.34-1.109.527-.636.186-1.262.186zm8.736-.033q-.242 0-.384-.142-.132-.154-.132-.406v-5.927q0-.197.055-.329.055-.142.176-.208.11-.066.285-.066t.285.055q.11.044.198.142.088.088.142.209l2.415 4.302 2.414-4.302q.055-.132.143-.209.088-.098.197-.142.11-.055.275-.055.252 0 .384.154.132.142.132.45v5.926q0 .252-.132.406-.132.142-.384.142-.242 0-.384-.142-.132-.154-.132-.406v-5.125h.33l-2.426 4.258q-.055.11-.154.197-.099.066-.252.066-.176 0-.275-.088-.087-.088-.153-.186l-2.426-4.258h.33v5.125q0 .252-.143.406-.132.142-.373.142zm11.71.033q-1.01 0-1.745-.439-.736-.439-1.153-1.229-.395-.812-.395-1.898 0-.824.23-1.471.231-.67.67-1.13.44-.472 1.032-.714.614-.252 1.36-.252 1.01 0 1.745.439.736.439 1.13 1.25.407.791.407 1.888 0 .824-.23 1.471-.231.648-.67 1.13-.439.472-1.054.725-.592.241-1.35.241zm0-.922q.636 0 1.119-.307t.735-.91q.275-.593.275-1.438 0-1.295-.582-1.976-.57-.68-1.547-.68-.648 0-1.13.307-.473.296-.736.889-.253.582-.253 1.449 0 1.273.582 1.975.582.68 1.548.68zm9.57.89q-.275 0-.429-.154-.142-.154-.142-.44v-2.59h-.89q-.383 0-.647.088-.274.088-.494.308-.208.208-.45.614l-1.12 1.877q-.109.187-.284.252-.176.066-.33.033-.153-.033-.285-.142-.132-.11-.154-.275-.033-.153.088-.35l1.02-1.691q.308-.538.582-.856.286-.33.571-.483.296-.153.692-.197l-.297.373-2.02-2.568q-.13-.187-.142-.34 0-.176.099-.297.099-.131.241-.175.154-.055.308 0 .175.044.296.208l2.13 2.7h1.097v-2.36q0-.296.142-.439.154-.153.428-.153.286 0 .428.153.154.143.154.44v2.359h1.108l2.096-2.7q.143-.175.308-.208.175-.055.307 0 .143.044.241.175.1.11.088.286 0 .175-.132.35l-2.019 2.569-.296-.373q.395.044.68.197.297.154.571.472.285.307.593.867l1.02 1.69q.099.198.066.351-.01.154-.143.275-.131.11-.296.142-.154.044-.307-.033-.154-.065-.285-.252l-1.12-1.877q-.241-.395-.45-.614-.208-.23-.483-.307-.274-.088-.67-.088h-.888v2.59q0 .285-.154.439-.142.153-.428.153zm9.832.032q-1.097 0-1.887-.428-.78-.439-1.218-1.229-.428-.79-.428-1.899 0-1.075.428-1.876.428-.812 1.163-1.262.746-.45 1.734-.45.691 0 1.25.241.55.23.934.67.395.439.592 1.064.209.626.209 1.405 0 .23-.132.34-.132.099-.373.099h-4.939v-.746h4.665l-.23.186q0-.768-.231-1.295-.23-.537-.67-.823-.428-.285-1.075-.285-.725 0-1.23.34-.493.33-.746.922-.252.582-.252 1.36v.089q0 1.306.625 1.986.637.68 1.8.68.483 0 .955-.131.483-.132.933-.428.197-.132.351-.11.176 0 .274.099.1.087.132.23.044.132-.033.285-.055.154-.241.275-.472.34-1.109.527-.636.186-1.262.186zm11.128 0q-1.02 0-1.778-.439-.735-.45-1.152-1.328-.395-.878-.395-2.15v-1.065q0-1.372.351-2.294.373-.922 1.109-1.492.746-.571 1.854-.867l2.074-.582q.253-.066.428.011.187.088.231.307.055.242-.066.406-.11.176-.373.242l-2.195.592q-.768.209-1.273.637-.516.428-.768 1.053-.252.615-.252 1.394v.549h-.198q.176-.626.538-1.076.373-.45.91-.691.55-.252 1.219-.252.889 0 1.57.428.68.428 1.053 1.207.384.779.384 1.854 0 1.076-.406 1.888-.395.79-1.13 1.23-.725.438-1.713.438zm-.044-.922q.68 0 1.153-.296.483-.307.735-.889.252-.582.252-1.416 0-1.229-.57-1.91-.57-.68-1.559-.68-.67 0-1.152.297-.472.296-.724.867-.253.548-.253 1.328 0 1.328.55 2.03.57.68 1.557.68zm6.618 3.446q-.209 0-.34-.11-.132-.11-.154-.307-.01-.186.066-.384l.977-2.195v.494l-2.722-6.321q-.088-.209-.055-.395.033-.187.176-.297.142-.11.395-.11.23 0 .35.1.133.098.231.35l2.327 5.707h-.384l2.36-5.706q.11-.253.24-.351.132-.1.374-.1.23 0 .34.11.132.11.143.297.033.175-.055.384l-3.633 8.395q-.11.253-.252.351-.132.1-.373.1zm7.945-2.557q-.274 0-.428-.153-.153-.154-.153-.44v-5.476h-2.074q-.538 0-.538-.471 0-.209.143-.33.142-.131.395-.131h5.3q.527 0 .527.45 0 .23-.143.35-.131.11-.384.11h-2.085v5.477q0 .285-.143.439-.131.153-.428.153zm4.807 0q-.153 0-.285-.066-.11-.054-.187-.197-.055-.143-.055-.351v-5.905q0-.285.143-.428.143-.142.384-.142.253 0 .384.142.143.143.143.428v5.334h-.351l4.126-5.531q.11-.154.275-.252.153-.11.395-.11.175 0 .285.055.11.055.176.197.065.132.065.351v5.916q0 .274-.142.428-.132.142-.384.142-.253 0-.396-.142-.131-.154-.131-.428v-5.345h.351l-4.137 5.542q-.1.143-.253.253-.142.11-.395.11z"/><path style="fill:#0079cd;stroke-width:1.09744" d="M350.243 329.252v-7.308h5.652v7.308h-1.109v-6.365h-3.446v6.365zm9.69.1q-.57 0-1.042-.198-.472-.198-.824-.56-.35-.373-.537-.889-.187-.538-.187-1.218 0-.91.318-1.547.319-.637.9-.977.582-.34 1.394-.34.78 0 1.35.34.582.34.91.988.33.636.33 1.536 0 .68-.187 1.218-.175.538-.526.9-.34.362-.834.549-.483.197-1.087.197zm.022-.868q.757 0 1.12-.526.362-.538.362-1.471 0-.955-.362-1.46-.363-.526-1.13-.526-.769 0-1.12.515-.351.516-.351 1.47 0 .945.35 1.472.363.526 1.131.526zm3.918.768v-5.52h2.283q1.064 0 1.613.363.538.35.538 1.042 0 .472-.286.78-.274.296-.823.405v.044q.615.077.944.417.33.34.33.878 0 .44-.231.801-.23.362-.724.571-.505.22-1.35.22zm1.097-.834h1.109q.658 0 .966-.197.307-.209.307-.615 0-.417-.318-.614-.308-.209-.966-.209h-1.098zm0-2.447h1q.636 0 .932-.175.296-.176.296-.538 0-.362-.263-.538-.264-.176-.823-.176h-1.153zm7.134 3.38q-.801 0-1.416-.318-.614-.318-.966-.955-.34-.636-.34-1.558 0-.911.307-1.559.319-.658.878-.998.571-.351 1.317-.351.736 0 1.251.307.527.307.802.867.274.56.274 1.317v.614h-3.698q.022.845.45 1.284.438.44 1.207.44.504 0 .91-.1.418-.098.846-.285v.911q-.417.187-.845.274-.417.088-1 .088zm-1.559-3.435h2.568q0-.439-.131-.757-.132-.318-.406-.505-.264-.197-.692-.197-.581 0-.933.384-.35.384-.406 1.075zm4.983 5.784v-7.979h.878l.153.736h.055q.154-.23.384-.417.23-.198.538-.308.318-.11.746-.11 1 0 1.603.714.614.713.614 2.14 0 .933-.285 1.58-.274.648-.78.977-.493.318-1.163.318-.406 0-.724-.099-.318-.11-.538-.285-.23-.186-.384-.384h-.077q.033.187.055.439.022.241.022.439v2.25zm2.524-3.249q.439 0 .735-.241.297-.252.44-.702.142-.45.142-1.043 0-.9-.33-1.427-.329-.526-1.009-.526-.516 0-.834.208-.307.198-.45.593-.132.384-.132.998v.165q0 .636.121 1.086.132.44.45.68.318.231.856.231zm3.786.79v-5.52h1.087v2.25h2.535v-2.25h1.086v5.52h-1.086v-2.38h-2.535v2.38zm6.486 2.459q-.23 0-.428-.033-.187-.022-.307-.055v-.944q.131.033.263.055.143.022.307.022.33 0 .55-.11.23-.11.394-.318.165-.197.264-.472l.417-1.064-.011.933-2.393-5.993h1.163l1.153 3.15.153.461q.077.23.143.45.066.22.088.417h.044q.066-.241.164-.615.11-.373.242-.724l1.086-3.139h1.153l-2.349 6.212q-.208.538-.483.944-.263.395-.67.614-.394.22-.976.22zm6.365-2.458v-4.654h-1.756v-.867h4.598v.867h-1.766v4.654zm3.852 0v-5.52h1.065v3.006q0 .176-.022.45-.011.264-.033.527-.022.242-.033.384h.01l2.514-4.379h1.306v5.52h-1.064v-2.94q0-.22.01-.494l.023-.527.032-.384h-.021l-2.48 4.346zm8.802.098q-1.262 0-1.965-.713-.691-.724-.691-2.085 0-.944.329-1.591.34-.648.944-.988.603-.351 1.437-.351.428 0 .846.087.406.077.724.242l-.33.845q-.318-.143-.592-.209-.274-.076-.615-.076-.779 0-1.196.515-.406.516-.406 1.482t.406 1.449q.417.482 1.273.482.308 0 .648-.065.35-.066.67-.198v.889q-.264.12-.66.198-.383.076-.8.076zm2.864-.098v-5.52h1.086v1.953h.988q1.174 0 1.767.439.582.439.582 1.306 0 .878-.593 1.35-.593.46-1.745.46zm1.086-.867h.966q.637 0 .944-.23.307-.231.307-.692 0-.461-.296-.68-.296-.231-.966-.231h-.955zm7.298.867v-5.52h1.087v2.25h2.535v-2.25h1.086v5.52h-1.086v-2.382h-2.535v2.382zm7.76.098q-.56 0-.966-.186-.385-.198-.593-.56-.209-.373-.209-.878 0-.856.637-1.317.647-.46 1.931-.505l.933-.033v-.274q0-.57-.274-.834-.275-.263-.89-.263-.383 0-.767.087-.384.088-.845.286l-.34-.812q.526-.23 1.01-.33.493-.11.998-.11 1.097 0 1.624.484.538.471.538 1.448v3.699h-.78l-.219-.78h-.044q-.23.297-.505.505-.263.198-.581.286-.308.087-.692.087zm.318-.845q.603 0 .998-.35.406-.363.406-1.087v-.461l-.735.033q-.856.033-1.251.285-.384.252-.384.735 0 .417.241.637.242.208.703.208zm6.826.747v-5.52h3.533v.888h-2.447v4.632zm6.694.098q-.57 0-1.043-.197-.471-.198-.823-.56-.35-.373-.537-.889-.187-.538-.187-1.218 0-.91.318-1.547.319-.637.9-.977.582-.34 1.394-.34.78 0 1.35.34.581.34.91.988.33.636.33 1.536 0 .68-.187 1.218-.175.538-.526.9-.34.362-.835.549-.482.197-1.086.197zm.022-.867q.757 0 1.12-.526.361-.538.361-1.471 0-.955-.362-1.46-.362-.526-1.13-.526-.768 0-1.12.515-.35.516-.35 1.471 0 .944.35 1.47.363.527 1.13.527zm3.698.845q-.164 0-.318-.033-.143-.022-.285-.065v-.911q.12.033.208.044.088.01.187.01.23 0 .384-.098.153-.099.241-.351.088-.242.132-.692.033-.35.055-.691.033-.34.055-.724.022-.396.055-.9.033-.505.066-1.175h3.906v5.52h-1.086v-4.63h-1.877q-.033.45-.055.833-.022.374-.043.692l-.044.636q-.022.297-.055.582-.099 1.053-.45 1.503-.34.45-1.076.45zm8.571.033q-.57 0-1.042-.197-.472-.198-.823-.56-.352-.373-.538-.889-.187-.538-.187-1.218 0-.91.319-1.547.318-.637.9-.977.581-.34 1.393-.34.78 0 1.35.34.582.34.91.988.33.636.33 1.536 0 .68-.186 1.218-.176.538-.527.9-.34.362-.834.549-.483.197-1.087.197zm.022-.867q.757 0 1.12-.526.362-.538.362-1.471 0-.955-.362-1.46-.363-.526-1.13-.526-.769 0-1.12.515-.351.516-.351 1.471 0 .944.35 1.47.363.527 1.131.527zm3.918.769v-5.52h2.283q1.064 0 1.613.362.538.35.538 1.042 0 .472-.286.78-.274.296-.823.405v.044q.615.077.944.417.33.34.33.878 0 .44-.231.801-.23.363-.724.571-.505.22-1.35.22zm1.098-.835h1.108q.658 0 .966-.197.307-.209.307-.615 0-.417-.318-.614-.308-.209-.966-.209h-1.097zm0-2.447h.998q.637 0 .933-.175.296-.176.296-.538 0-.362-.263-.538-.263-.175-.823-.175h-1.152zm4.806 3.282v-5.52h1.087v2.25h2.535v-2.25h1.086v5.52h-1.086v-2.382h-2.535v2.382zm6.486 2.458q-.23 0-.428-.033-.186-.022-.307-.055v-.944q.132.033.263.055.143.022.308.022.329 0 .548-.11.23-.11.395-.318.165-.197.264-.472l.417-1.064-.011.933-2.393-5.993h1.164l1.152 3.15.154.461q.076.23.142.45.066.22.088.417h.044q.066-.241.165-.615.11-.373.241-.724l1.086-3.139h1.153l-2.349 6.212q-.208.538-.483.944-.263.395-.669.614-.395.22-.977.22z"/><path d="M306.773 219.904q5.103 1.273 4.5 8.505-.373 4.455-6.234 14.102-.033.066-.077.12l-.076.1q-2.81 3.28-2.118 5.706.45 1.58 3.171 5.904 4.072 6.497 3.918 9.109-.11 1.68-1.778 1.57-1.679-.1-1.57-1.779.1-1.536-3.401-7.122-2.963-4.73-3.556-6.771-1.174-4.105 2.7-8.703 5.388-8.89 5.684-12.522.363-4.39-1.964-4.971-.812-.209-1.12-.713-.307-.505-.11-1.328.407-1.624 2.031-1.23zm.703 1.382q0 7.243-5.126 12.368-5.125 5.126-12.368 5.126-7.254 0-12.379-5.126-5.125-5.125-5.125-12.368 0-7.254 5.125-12.379t12.38-5.125q7.242 0 12.367 5.125 5.126 5.125 5.126 12.38zm-3.359 0q0-5.86-4.137-9.997-4.137-4.138-9.998-4.138-5.86 0-9.997 4.138-4.138 4.148-4.138 9.997 0 5.86 4.138 9.998 4.148 4.148 9.997 4.148 5.86 0 9.998-4.148 4.148-4.137 4.137-9.998zm4.105 27.941q5.366-8.79 5.388-19.14.033-15.308-10.766-26.151-10.798-10.843-26.097-10.887-15.31-.033-26.152 10.755-10.842 10.799-10.886 26.097-.033 15.299 10.755 26.152 10.798 10.843 26.097 10.887 12.412.033 22.3-7.419 1.339-1.01 2.348.33 1.01 1.338-.33 2.348-10.787 8.12-24.318 8.099-16.692-.044-28.468-11.874-11.775-11.83-11.743-28.523.044-16.692 11.875-28.467 11.83-11.776 28.522-11.743 16.692.044 28.468 11.874 11.775 11.83 11.742 28.523-.022 11.292-5.882 20.884-.878 1.438-2.304.56-1.438-.878-.56-2.305zm-13.082-24.264a5.037 5.037 0 0 1-5.037 5.037 5.044 5.044 0 0 1-5.037-5.037 5.044 5.044 0 0 1 5.037-5.037 5.044 5.044 0 0 1 5.037 5.037m-28.544-3.358a5.037 5.037 0 0 1-5.037 5.037 5.044 5.044 0 0 1-5.038-5.037 5.044 5.044 0 0 1 5.038-5.038 5.044 5.044 0 0 1 5.037 5.038m31.003-4.818q-1.987-1.427-7.222-.57-3.775.614-5.783.438-.834-.077-1.218-.538-.384-.45-.308-1.295.154-1.668 1.822-1.525 1.58.143 4.939-.406 6.595-1.076 9.712 1.152.68.494.78 1.076.098.581-.396 1.273-.977 1.372-2.337.395zm-44.897-9.427q3.841-2.667 8.462-2.096 4.675.131 8.088 3.38 1.218 1.152.055 2.37-1.164 1.218-2.37.055-2.492-2.381-5.938-2.458-.088 0-.176-.011-3.39-.439-6.211 1.514-1.383.955-2.338-.428-.954-1.382.428-2.337zm11.458 34.942q3.435-.965 12.598.308 9.416 1.306 12.412 3.402 1.372.965.406 2.337-.965 1.372-2.337.406-2.327-1.635-10.942-2.831-8.461-1.174-11.227-.395-1.613.45-2.074-1.164-.23-.812.066-1.327.285-.516 1.098-.747z" style="fill:#3e4053;stroke-width:1.09744"/></svg>